# xmcd
# Copyright (C) 1995-1998 Ti Kan
#
# Track frame offsets:
#       150
#       16448
#       153483
#       172191
#       172510
#       281835
#
# Disc length: 4731 seconds
#
# Revision: 0
# Processed by: cddbd v1.5.2PL0 Copyright (c) Steve Scherf et al.
# Submitted via: CD-Import v1.0
#
DISCID=47127906
DTITLE=Dj Silence - 110526 Electropique Cd 1
DYEAR=1900
DGENRE=
TTITLE0=110526 Electropique 1
TTITLE1=110526 Electropique 2
TTITLE2=110526 Electropique 3
TTITLE3=110526 Electropique 4
TTITLE4=110526 Electropique 5
TTITLE5=110526 Electropique 6
EXTD=
EXTT0=
EXTT1=
EXTT2=
EXTT3=
EXTT4=
EXTT5=
PLAYORDER=
